<mxfile host="65bd71144e">
    <diagram id="WkzuzJuz80rkRivc9DpX" name="plan rÃ©seau">
        <mxGraphModel dx="1084" dy="893" grid="0" gridSize="10" guides="1" tooltips="1" connect="1" arrows="1" fold="1" page="0" pageScale="1" pageWidth="850" pageHeight="1100" math="0" shadow="0">
            <root>
                <mxCell id="0"/>
                <mxCell id="1" parent="0"/>
                <mxCell id="2" value="routeur de bordure +vpn" style="shape=mxgraph.cisco.routers.router;sketch=0;html=1;pointerEvents=1;dashed=0;fillColor=#036897;strokeColor=default;strokeWidth=2;verticalLabelPosition=bottom;verticalAlign=top;align=center;outlineConnect=0;" parent="1" vertex="1">
                    <mxGeometry x="159" y="-252.5" width="78" height="53" as="geometry"/>
                </mxCell>
                <mxCell id="8" value="internet" style="ellipse;shape=cloud;whiteSpace=wrap;html=1;" parent="1" vertex="1">
                    <mxGeometry x="-32" y="-266" width="120" height="80" as="geometry"/>
                </mxCell>
                <mxCell id="22" value="vmbr2" style="shape=mxgraph.cisco.switches.workgroup_switch;sketch=0;html=1;pointerEvents=1;dashed=0;fillColor=#036897;strokeColor=#ffffff;strokeWidth=2;verticalLabelPosition=bottom;verticalAlign=top;align=center;outlineConnect=0;" parent="1" vertex="1">
                    <mxGeometry x="395" y="-139" width="101" height="50" as="geometry"/>
                </mxCell>
                <mxCell id="23" value="Network:192.168.200.0/24" style="group;fillColor=#1ba1e2;strokeColor=default;fontStyle=1;fontColor=none;gradientColor=default;labelBackgroundColor=none;noLabel=1;verticalAlign=top;" parent="1" vertex="1" connectable="0">
                    <mxGeometry x="574" y="-10" width="437" height="345" as="geometry"/>
                </mxCell>
                <mxCell id="20" value="&lt;b&gt;&lt;font style=&quot;font-size: 15px;&quot;&gt;zone serveur&lt;/font&gt;&lt;/b&gt;" style="rounded=0;whiteSpace=wrap;html=1;align=right;fillStyle=solid;fillColor=#fff2cc;strokeColor=#d6b656;" parent="23" vertex="1">
                    <mxGeometry width="437" height="330" as="geometry"/>
                </mxCell>
                <mxCell id="12" value="serveur linux apache" style="shape=mxgraph.cisco.servers.standard_host;sketch=0;html=1;pointerEvents=1;dashed=0;fillColor=#036897;strokeColor=#ffffff;strokeWidth=2;verticalLabelPosition=bottom;verticalAlign=top;align=center;outlineConnect=0;fontStyle=1;gradientColor=default;" parent="23" vertex="1">
                    <mxGeometry x="106.29729729729729" y="31.68" width="50.78648648648648" height="81.84" as="geometry"/>
                </mxCell>
                <mxCell id="16" value="windows server 11" style="shape=mxgraph.cisco.servers.standard_host;sketch=0;html=1;pointerEvents=1;dashed=0;fillColor=#036897;strokeColor=#006EAF;strokeWidth=2;verticalLabelPosition=middle;verticalAlign=middle;align=left;outlineConnect=0;fontColor=#000000;fontStyle=1;labelPosition=right;gradientColor=default;" parent="23" vertex="1">
                    <mxGeometry x="106.29378378378377" y="143" width="50.78648648648648" height="81.84" as="geometry"/>
                </mxCell>
                <mxCell id="48" value="" style="endArrow=none;html=1;exitX=1;exitY=0.5;exitDx=0;exitDy=0;exitPerimeter=0;entryX=0.22;entryY=0.11;entryDx=0;entryDy=0;entryPerimeter=0;" edge="1" parent="23" source="16" target="74">
                    <mxGeometry width="50" height="50" relative="1" as="geometry">
                        <mxPoint x="-369.67837837837834" y="-88.44" as="sourcePoint"/>
                        <mxPoint x="321.99864864864867" y="270.02258851299257" as="targetPoint"/>
                    </mxGeometry>
                </mxCell>
                <mxCell id="63" value="Network:192.168.200.0/24" style="text;html=1;strokeColor=none;fillColor=none;align=center;verticalAlign=middle;whiteSpace=wrap;rounded=0;" vertex="1" parent="23">
                    <mxGeometry x="290.5459459459459" y="46.2" width="70.86486486486486" height="39.6" as="geometry"/>
                </mxCell>
                <mxCell id="66" value=".10" style="text;html=1;strokeColor=none;fillColor=none;align=center;verticalAlign=middle;whiteSpace=wrap;rounded=0;" vertex="1" parent="23">
                    <mxGeometry x="35.43243243243243" y="60.720000000000006" width="70.86486486486486" height="39.6" as="geometry"/>
                </mxCell>
                <mxCell id="64" value=".11" style="text;html=1;strokeColor=none;fillColor=none;align=center;verticalAlign=middle;whiteSpace=wrap;rounded=0;" vertex="1" parent="23">
                    <mxGeometry x="21.259459459459457" y="153" width="70.86486486486486" height="39.6" as="geometry"/>
                </mxCell>
                <mxCell id="71" value="Active directory" style="sketch=0;aspect=fixed;html=1;points=[];align=center;image;fontSize=12;image=img/lib/mscae/Active_Directory.svg;fontColor=#000000;" vertex="1" parent="23">
                    <mxGeometry x="35.43" y="256" width="50" height="50" as="geometry"/>
                </mxCell>
                <mxCell id="72" value="" style="aspect=fixed;html=1;points=[];align=center;image;fontSize=12;image=img/lib/azure2/networking/DNS_Zones.svg;fontColor=#000000;" vertex="1" parent="23">
                    <mxGeometry x="136" y="256" width="64" height="64" as="geometry"/>
                </mxCell>
                <mxCell id="73" value="DHCP" style="verticalLabelPosition=bottom;sketch=0;aspect=fixed;html=1;verticalAlign=top;strokeColor=none;align=center;outlineConnect=0;shape=mxgraph.citrix.dhcp_server;fontColor=#000000;" vertex="1" parent="23">
                    <mxGeometry x="250" y="242.05" width="54" height="63.95" as="geometry"/>
                </mxCell>
                <mxCell id="74" value="" style="shape=mxgraph.cisco.storage.file_cabinet;html=1;pointerEvents=1;dashed=0;fillColor=#036897;strokeColor=#ffffff;strokeWidth=2;verticalLabelPosition=bottom;verticalAlign=top;align=center;outlineConnect=0;fontColor=#000000;" vertex="1" parent="23">
                    <mxGeometry x="344" y="211" width="51" height="62" as="geometry"/>
                </mxCell>
                <mxCell id="75" value="" style="endArrow=none;html=1;fontColor=#000000;" edge="1" parent="23" source="73" target="16">
                    <mxGeometry width="50" height="50" relative="1" as="geometry">
                        <mxPoint x="174" y="305" as="sourcePoint"/>
                        <mxPoint x="224" y="255" as="targetPoint"/>
                    </mxGeometry>
                </mxCell>
                <mxCell id="76" value="" style="endArrow=none;html=1;fontColor=#000000;" edge="1" parent="23" source="71" target="16">
                    <mxGeometry width="50" height="50" relative="1" as="geometry">
                        <mxPoint x="24" y="286" as="sourcePoint"/>
                        <mxPoint x="74" y="236" as="targetPoint"/>
                    </mxGeometry>
                </mxCell>
                <mxCell id="77" value="" style="endArrow=none;html=1;fontColor=#000000;" edge="1" parent="23" source="72" target="16">
                    <mxGeometry width="50" height="50" relative="1" as="geometry">
                        <mxPoint x="95" y="265" as="sourcePoint"/>
                        <mxPoint x="145" y="215" as="targetPoint"/>
                    </mxGeometry>
                </mxCell>
                <mxCell id="24" value="" style="group;fillColor=#dae8fc;strokeColor=#6c8ebf;fillStyle=auto;" parent="1" vertex="1" connectable="0">
                    <mxGeometry x="574" y="-226" width="397" height="180" as="geometry"/>
                </mxCell>
                <mxCell id="21" value="&lt;font size=&quot;1&quot; style=&quot;&quot;&gt;&lt;b style=&quot;font-size: 15px;&quot;&gt;zone station&lt;/b&gt;&lt;/font&gt;" style="rounded=0;whiteSpace=wrap;html=1;fillColor=#dae8fc;strokeColor=#6c8ebf;align=right;" parent="24" vertex="1">
                    <mxGeometry width="397" height="180" as="geometry"/>
                </mxCell>
                <mxCell id="14" value="linux ST" style="shape=mxgraph.cisco.computers_and_peripherals.pc;html=1;pointerEvents=1;dashed=0;fillColor=#036897;strokeColor=#ffffff;strokeWidth=2;verticalLabelPosition=bottom;verticalAlign=top;align=center;outlineConnect=0;" parent="24" vertex="1">
                    <mxGeometry x="56" y="27" width="78" height="70" as="geometry"/>
                </mxCell>
                <mxCell id="15" value="windows ST" style="shape=mxgraph.cisco.computers_and_peripherals.pc;html=1;pointerEvents=1;dashed=0;fillColor=#036897;strokeColor=#ffffff;strokeWidth=2;verticalLabelPosition=bottom;verticalAlign=top;align=center;outlineConnect=0;" parent="24" vertex="1">
                    <mxGeometry x="184" y="19" width="78" height="70" as="geometry"/>
                </mxCell>
                <mxCell id="65" value="Network192.168.100.0/24" style="text;html=1;strokeColor=none;fillColor=none;align=center;verticalAlign=middle;whiteSpace=wrap;rounded=0;" vertex="1" parent="24">
                    <mxGeometry x="153" y="132" width="60" height="30" as="geometry"/>
                </mxCell>
                <mxCell id="25" value="" style="group;fillColor=#FFFF00;strokeColor=#D79B00;glass=0;gradientColor=none;" parent="1" vertex="1" connectable="0">
                    <mxGeometry x="94" y="68" width="260" height="260" as="geometry"/>
                </mxCell>
                <mxCell id="19" value="&lt;b&gt;&lt;font style=&quot;font-size: 24px;&quot;&gt;DMZ&lt;/font&gt;&lt;/b&gt;" style="whiteSpace=wrap;html=1;aspect=fixed;align=right;fillColor=#FFFF00;strokeColor=#d6b656;" parent="25" vertex="1">
                    <mxGeometry width="260" height="260" as="geometry"/>
                </mxCell>
                <mxCell id="4" value="windows server IIS" style="shape=mxgraph.cisco.servers.standard_host;sketch=0;html=1;pointerEvents=1;dashed=0;fillColor=#036897;strokeColor=#ffffff;strokeWidth=2;verticalLabelPosition=bottom;verticalAlign=top;align=center;outlineConnect=0;" parent="25" vertex="1">
                    <mxGeometry x="99" y="74" width="43" height="62" as="geometry"/>
                </mxCell>
                <mxCell id="61" value="&lt;br&gt;&lt;span style=&quot;color: rgb(85, 85, 85); font-family: Poppins, sans-serif; font-size: medium; font-style: normal; font-variant-ligatures: normal; font-variant-caps: normal; font-weight: 400; letter-spacing: normal; orphans: 2; text-align: start; text-indent: 0px; text-transform: none; widows: 2; word-spacing: 0px; -webkit-text-stroke-width: 0px; background-color: rgb(255, 255, 255); text-decoration-thickness: initial; text-decoration-style: initial; text-decoration-color: initial; float: none; display: inline !important;&quot;&gt;Network:10.255.255.0/24&lt;/span&gt;&lt;br&gt;" style="text;html=1;strokeColor=none;fillColor=none;align=center;verticalAlign=middle;whiteSpace=wrap;rounded=0;" vertex="1" parent="25">
                    <mxGeometry x="63" y="211" width="60" height="30" as="geometry"/>
                </mxCell>
                <mxCell id="62" value=".100" style="text;html=1;strokeColor=none;fillColor=none;align=center;verticalAlign=middle;whiteSpace=wrap;rounded=0;" vertex="1" parent="25">
                    <mxGeometry x="160" y="47" width="60" height="30" as="geometry"/>
                </mxCell>
                <mxCell id="30" value="&#10;&lt;span style=&quot;color: rgb(85, 85, 85); font-family: Poppins, sans-serif; font-size: medium; font-style: normal; font-variant-ligatures: normal; font-variant-caps: normal; font-weight: 400; letter-spacing: normal; orphans: 2; text-align: start; text-indent: 0px; text-transform: none; widows: 2; word-spacing: 0px; -webkit-text-stroke-width: 0px; background-color: rgb(255, 255, 255); text-decoration-thickness: initial; text-decoration-style: initial; text-decoration-color: initial; float: none; display: inline !important;&quot;&gt;10.255.255.254&lt;/span&gt;&#10;&#10;" style="endArrow=none;html=1;" parent="1" source="46" target="2" edge="1">
                    <mxGeometry width="50" height="50" relative="1" as="geometry">
                        <mxPoint x="146.00000000000023" y="-72" as="sourcePoint"/>
                        <mxPoint x="629" y="51" as="targetPoint"/>
                    </mxGeometry>
                </mxCell>
                <mxCell id="42" value="vmbr1" style="edgeLabel;html=1;align=center;verticalAlign=middle;resizable=0;points=[];" parent="30" vertex="1" connectable="0">
                    <mxGeometry x="0.3056" y="-1" relative="1" as="geometry">
                        <mxPoint x="-72" y="96" as="offset"/>
                    </mxGeometry>
                </mxCell>
                <mxCell id="35" value="" style="endArrow=none;html=1;entryX=0;entryY=0.5;entryDx=0;entryDy=0;entryPerimeter=0;exitX=0.875;exitY=0.5;exitDx=0;exitDy=0;exitPerimeter=0;" parent="1" source="8" target="2" edge="1">
                    <mxGeometry width="50" height="50" relative="1" as="geometry">
                        <mxPoint x="579" y="101" as="sourcePoint"/>
                        <mxPoint x="629" y="51" as="targetPoint"/>
                    </mxGeometry>
                </mxCell>
                <mxCell id="45" value="Zone station /24&lt;br&gt;Zone serveur /24&lt;br&gt;DMZ /24" style="text;html=1;strokeColor=none;fillColor=none;align=center;verticalAlign=middle;whiteSpace=wrap;rounded=0;glass=0;fillStyle=auto;fontSize=15;" parent="1" vertex="1">
                    <mxGeometry x="-127" y="55" width="161" height="30" as="geometry"/>
                </mxCell>
                <mxCell id="46" value="vmbr1" style="shape=mxgraph.cisco.switches.workgroup_switch;sketch=0;html=1;pointerEvents=1;dashed=0;fillColor=#036897;strokeColor=#ffffff;strokeWidth=2;verticalLabelPosition=bottom;verticalAlign=top;align=center;outlineConnect=0;" vertex="1" parent="1">
                    <mxGeometry x="75" y="-87" width="101" height="50" as="geometry"/>
                </mxCell>
                <mxCell id="47" value="" style="endArrow=none;html=1;entryX=0.5;entryY=0.98;entryDx=0;entryDy=0;entryPerimeter=0;exitX=0.206;exitY=0.009;exitDx=0;exitDy=0;exitPerimeter=0;" edge="1" parent="1" source="19" target="46">
                    <mxGeometry width="50" height="50" relative="1" as="geometry">
                        <mxPoint x="84" y="34" as="sourcePoint"/>
                        <mxPoint x="134" y="-16" as="targetPoint"/>
                    </mxGeometry>
                </mxCell>
                <mxCell id="49" value="" style="endArrow=none;html=1;entryX=0;entryY=0;entryDx=0;entryDy=0;exitX=0.98;exitY=0.5;exitDx=0;exitDy=0;exitPerimeter=0;" edge="1" parent="1" source="51" target="21">
                    <mxGeometry width="50" height="50" relative="1" as="geometry">
                        <mxPoint x="452" y="-183" as="sourcePoint"/>
                        <mxPoint x="470" y="-163" as="targetPoint"/>
                    </mxGeometry>
                </mxCell>
                <mxCell id="51" value="vmbr3" style="shape=mxgraph.cisco.switches.workgroup_switch;sketch=0;html=1;pointerEvents=1;dashed=0;fillColor=#036897;strokeColor=#ffffff;strokeWidth=2;verticalLabelPosition=bottom;verticalAlign=top;align=center;outlineConnect=0;" vertex="1" parent="1">
                    <mxGeometry x="403" y="-252.5" width="101" height="50" as="geometry"/>
                </mxCell>
                <mxCell id="53" value="&#10;&lt;span style=&quot;color: rgb(85, 85, 85); font-family: Poppins, sans-serif; font-size: medium; font-style: normal; font-variant-ligatures: normal; font-variant-caps: normal; font-weight: 400; letter-spacing: normal; orphans: 2; text-align: start; text-indent: 0px; text-transform: none; widows: 2; word-spacing: 0px; -webkit-text-stroke-width: 0px; background-color: rgb(255, 255, 255); text-decoration-thickness: initial; text-decoration-style: initial; text-decoration-color: initial; float: none; display: inline !important;&quot;&gt;192.168.100.254&lt;/span&gt;&#10;&#10;" style="endArrow=none;html=1;entryX=0;entryY=0.5;entryDx=0;entryDy=0;entryPerimeter=0;exitX=1;exitY=0.5;exitDx=0;exitDy=0;exitPerimeter=0;" edge="1" parent="1" source="2" target="51">
                    <mxGeometry width="50" height="50" relative="1" as="geometry">
                        <mxPoint x="420" y="-113" as="sourcePoint"/>
                        <mxPoint x="470" y="-163" as="targetPoint"/>
                    </mxGeometry>
                </mxCell>
                <mxCell id="59" value="&#10;&lt;span style=&quot;color: rgb(85, 85, 85); font-family: Poppins, sans-serif; font-size: medium; font-style: normal; font-variant-ligatures: normal; font-variant-caps: normal; font-weight: 400; letter-spacing: normal; orphans: 2; text-align: start; text-indent: 0px; text-transform: none; widows: 2; word-spacing: 0px; -webkit-text-stroke-width: 0px; background-color: rgb(255, 255, 255); text-decoration-thickness: initial; text-decoration-style: initial; text-decoration-color: initial; float: none; display: inline !important;&quot;&gt;192.168.200.254&lt;/span&gt;&#10;&#10;" style="endArrow=none;html=1;exitX=0.88;exitY=0.9;exitDx=0;exitDy=0;exitPerimeter=0;entryX=0.16;entryY=0.23;entryDx=0;entryDy=0;entryPerimeter=0;" edge="1" parent="1" source="2" target="22">
                    <mxGeometry width="50" height="50" relative="1" as="geometry">
                        <mxPoint x="493" y="5" as="sourcePoint"/>
                        <mxPoint x="543" y="-45" as="targetPoint"/>
                    </mxGeometry>
                </mxCell>
                <mxCell id="60" value="" style="endArrow=none;html=1;entryX=0.87;entryY=0.74;entryDx=0;entryDy=0;entryPerimeter=0;exitX=0;exitY=0;exitDx=0;exitDy=0;" edge="1" parent="1" source="20" target="22">
                    <mxGeometry width="50" height="50" relative="1" as="geometry">
                        <mxPoint x="493" y="5" as="sourcePoint"/>
                        <mxPoint x="543" y="-45" as="targetPoint"/>
                    </mxGeometry>
                </mxCell>
            </root>
        </mxGraphModel>
    </diagram>
</mxfile>